<?xml version="1.0" standalone="no"?>
<!DOCTYPE svg PUBLIC "-//W3C//DTD SVG 20010904//EN"
 "http://www.w3.org/TR/2001/REC-SVG-20010904/DTD/svg10.dtd">
<svg version="1.0" xmlns="http://www.w3.org/2000/svg"
 width="512.000000pt" height="512.000000pt" viewBox="0 0 512.000000 512.000000"
 preserveAspectRatio="xMidYMid meet">

<g transform="translate(0.000000,512.000000) scale(0.100000,-0.100000)"
fill="#FFFFFF" stroke="none">
<path d="M1097 4973 c-11 -110 -8 -957 3 -1088 33 -380 115 -669 282 -997 l70
-137 -61 -103 c-182 -302 -343 -697 -450 -1098 -60 -223 -61 -212 16 -129 60
64 181 164 189 157 1 -2 -5 -29 -14 -62 -13 -48 -14 -69 -4 -124 26 -153 127
-284 382 -496 163 -135 339 -307 427 -418 32 -41 103 -144 157 -229 55 -85
102 -158 106 -162 4 -5 52 37 106 93 121 125 215 199 404 320 215 138 300 208
362 302 l24 37 65 -45 c152 -107 299 -155 474 -155 126 0 195 15 288 63 55 29
59 33 35 36 l-27 3 32 44 c26 35 43 47 86 60 31 9 66 29 80 44 33 35 101 199
101 242 0 21 -43 113 -134 283 -74 138 -142 268 -152 288 l-17 37 63 122 63
122 -6 186 c-10 289 -44 486 -128 731 -28 80 -52 155 -55 167 -4 12 19 98 55
205 201 608 293 1071 291 1468 -1 180 -11 300 -22 270 -3 -8 -24 -73 -47 -145
-109 -341 -222 -490 -781 -1031 l-273 -264 -181 1 c-100 1 -213 4 -253 8 l-72
6 -152 170 c-392 439 -901 955 -1099 1116 -116 94 -214 169 -222 169 -3 0 -8
-30 -11 -67z m214 -498 c87 -280 229 -548 425 -803 35 -45 64 -85 64 -88 0 -8
-29 10 -174 110 -76 53 -140 96 -142 96 -9 0 31 -68 89 -154 64 -94 236 -280
306 -331 43 -32 51 -45 26 -45 -27 0 -110 -32 -159 -62 l-49 -30 -59 59 c-232
227 -340 441 -393 783 -19 117 -33 643 -20 726 l7 49 24 -105 c13 -57 38 -150
55 -205z m699 -435 c226 -259 369 -435 518 -640 73 -100 111 -143 148 -167
202 -130 408 -314 491 -438 120 -179 176 -374 207 -720 17 -197 27 -365 22
-365 -3 0 -14 30 -26 68 -86 261 -236 593 -329 730 -50 73 -224 271 -208 237
3 -5 25 -43 50 -83 49 -79 106 -206 130 -289 l16 -53 -52 39 c-97 74 -174 96
-367 105 -63 3 -164 15 -225 25 -126 22 -245 36 -245 29 0 -3 28 -22 63 -43
115 -71 210 -147 341 -274 179 -173 250 -210 441 -234 l99 -12 -124 -54 c-69
-30 -150 -67 -182 -82 l-56 -28 -124 58 c-226 108 -388 151 -565 151 l-98 0
101 -53 c156 -82 277 -171 352 -256 37 -42 90 -99 117 -126 52 -53 143 -120
151 -112 2 2 0 17 -6 32 -6 15 -9 30 -7 32 2 2 50 -19 105 -47 121 -61 227
-138 345 -254 48 -47 108 -99 132 -116 52 -36 153 -82 167 -78 5 2 -54 65
-131 141 -77 76 -131 132 -118 126 42 -23 153 -97 382 -254 212 -145 258 -174
308 -189 16 -5 17 -8 3 -35 -9 -16 -28 -39 -43 -51 -27 -21 -35 -22 -178 -17
-241 8 -315 37 -467 182 -186 177 -340 260 -538 290 l-45 7 45 -47 c25 -26 78
-69 119 -96 80 -53 80 -55 6 -35 -125 33 -326 141 -481 257 -44 32 -82 59 -85
59 -10 0 -49 -99 -55 -142 -4 -21 -11 -41 -16 -44 -10 -6 -123 104 -172 166
l-27 35 7 -40 c24 -152 131 -361 291 -573 51 -67 85 -118 76 -113 -101 55
-441 382 -491 471 -48 87 -72 170 -72 253 0 89 29 210 69 283 16 30 25 54 20
54 -15 0 -185 -173 -220 -225 -19 -27 -50 -81 -71 -120 -41 -77 -40 -78 -63
35 -37 175 -29 355 20 501 40 116 91 196 184 290 47 48 77 83 66 79 -152 -59
-280 -145 -417 -282 -60 -59 -108 -105 -108 -103 0 20 84 235 125 320 75 156
156 272 284 406 l110 116 -59 46 c-75 58 -141 142 -186 234 -34 69 -69 202
-57 213 3 3 8 -1 10 -7 8 -24 177 -165 268 -226 80 -52 463 -253 470 -245 1 2
7 37 14 78 13 85 64 200 108 242 16 15 46 36 66 46 l38 18 -49 75 c-63 95
-153 192 -230 248 -34 25 -59 48 -56 53 12 19 201 -2 278 -31 16 -7 30 -10 32
-8 2 2 -30 58 -71 126 -112 185 -293 433 -518 711 -61 75 -63 79 -16 30 29
-30 145 -161 259 -290z m814 -1792 c62 -26 174 -97 200 -126 11 -12 17 -22 14
-22 -17 0 -197 40 -220 49 -30 11 -100 77 -118 112 -12 21 -11 22 30 15 24 -4
66 -16 94 -28z"/>
</g>
</svg>
